<svg width="229" height="50" viewBox="0 0 229 50" fill="none" xmlns="http://www.w3.org/2000/svg">
<path fill-rule="evenodd" clip-rule="evenodd" d="M47.6615 0C53.0788 0 57.3221 1.34516 60.3934 4.03663C63.4643 6.72753 65.0001 10.46 65 15.2343C65 20.0304 62.2314 24.9133 56.6937 29.8825L34.096 49.4143C33.6609 49.8045 33.1286 50 32.4999 50C31.8713 50 31.3394 49.8045 30.904 49.4135L8.27033 29.8168C8.02856 29.6435 7.69595 29.3611 7.27289 28.971C6.8502 28.58 6.17864 27.8699 5.25971 26.839C4.34079 25.8081 3.51842 24.7498 2.79324 23.6651C2.06793 22.5802 1.42063 21.2671 0.852607 19.7263C0.284583 18.186 0 16.6883 0 15.2343C0 10.46 1.53561 6.72753 4.60657 4.03663C7.67753 1.34551 11.9211 0 17.338 0C18.8371 0 20.3669 0.233391 21.9264 0.699603C23.486 1.16639 24.937 1.79553 26.2791 2.58794C27.6215 3.38024 28.7758 4.1234 29.7434 4.81764C30.7104 5.51212 31.6293 6.25014 32.5001 7.03115C33.3705 6.25014 34.2896 5.51212 35.2565 4.81764C36.2244 4.1234 37.3783 3.37978 38.7209 2.58794C40.0617 1.79587 41.513 1.16627 43.073 0.699603C44.6323 0.233277 46.1624 0 47.6615 0ZM35.0702 11.6159C38.2734 4.6611 46.7426 1.16103 53.9488 3.8139C61.155 6.46677 64.4117 14.2836 61.2085 21.2383C60.2468 23.3262 58.7525 25.1972 56.8855 26.6501L33.913 46.9747C33.8769 47.0024 33.8331 47.0373 33.7838 47.0768C33.4793 47.3202 32.962 47.7339 32.706 47.6396C32.4961 47.5623 32.5963 46.3621 32.6637 45.5554C32.6918 45.2189 32.7142 44.9509 32.706 44.8615L33.8785 18.1876C33.6959 15.973 34.1085 13.7037 35.0702 11.6159ZM41.6048 14.0216C40.0031 17.499 41.6315 21.4073 45.2346 22.7337C48.8377 24.0602 53.0722 22.3102 54.6738 18.8328C56.2755 15.3554 54.6471 11.447 51.044 10.1206C47.4409 8.79413 43.2064 10.5441 41.6048 14.0216Z" fill="#D95560"/>
<path d="M82.4314 33.288C80.7354 33.288 79.2794 32.928 78.0634 32.208C76.8474 31.472 75.9114 30.456 75.2554 29.16C74.5994 27.848 74.2714 26.336 74.2714 24.624C74.2714 22.912 74.5994 21.4 75.2554 20.088C75.9114 18.776 76.8474 17.752 78.0634 17.016C79.2794 16.28 80.7354 15.912 82.4314 15.912C84.4474 15.912 86.0954 16.416 87.3754 17.424C88.6714 18.416 89.4794 19.816 89.7994 21.624H86.4154C86.2074 20.712 85.7594 20 85.0714 19.488C84.3994 18.96 83.5034 18.696 82.3834 18.696C80.8314 18.696 79.6154 19.224 78.7354 20.28C77.8554 21.336 77.4154 22.784 77.4154 24.624C77.4154 26.464 77.8554 27.912 78.7354 28.968C79.6154 30.008 80.8314 30.528 82.3834 30.528C83.5034 30.528 84.3994 30.288 85.0714 29.808C85.7594 29.312 86.2074 28.632 86.4154 27.768H89.7994C89.4794 29.496 88.6714 30.848 87.3754 31.824C86.0954 32.8 84.4474 33.288 82.4314 33.288ZM96.9107 33.288C95.4227 33.288 94.2707 32.824 93.4547 31.896C92.6547 30.968 92.2547 29.608 92.2547 27.816V21.096H95.3027V27.528C95.3027 28.552 95.5107 29.336 95.9267 29.88C96.3427 30.424 96.9987 30.696 97.8947 30.696C98.7427 30.696 99.4387 30.392 99.9827 29.784C100.543 29.176 100.823 28.328 100.823 27.24V21.096H103.895V33H101.183L100.943 30.984C100.575 31.688 100.039 32.248 99.3347 32.664C98.6467 33.08 97.8387 33.288 96.9107 33.288ZM108.704 19.248C108.144 19.248 107.68 19.08 107.312 18.744C106.96 18.408 106.784 17.984 106.784 17.472C106.784 16.96 106.96 16.544 107.312 16.224C107.68 15.888 108.144 15.72 108.704 15.72C109.264 15.72 109.72 15.888 110.072 16.224C110.44 16.544 110.624 16.96 110.624 17.472C110.624 17.984 110.44 18.408 110.072 18.744C109.72 19.08 109.264 19.248 108.704 19.248ZM107.168 33V21.096H110.24V33H107.168ZM118.919 33.288C117.799 33.288 116.799 33.016 115.919 32.472C115.039 31.928 114.343 31.184 113.831 30.24C113.319 29.296 113.063 28.224 113.063 27.024C113.063 25.824 113.319 24.76 113.831 23.832C114.343 22.888 115.039 22.152 115.919 21.624C116.799 21.08 117.799 20.808 118.919 20.808C119.815 20.808 120.599 20.976 121.271 21.312C121.943 21.648 122.487 22.12 122.903 22.728V15.72H125.975V33H123.239L122.903 31.296C122.519 31.824 122.007 32.288 121.367 32.688C120.743 33.088 119.927 33.288 118.919 33.288ZM119.567 30.6C120.559 30.6 121.367 30.272 121.991 29.616C122.631 28.944 122.951 28.088 122.951 27.048C122.951 26.008 122.631 25.16 121.991 24.504C121.367 23.832 120.559 23.496 119.567 23.496C118.591 23.496 117.783 23.824 117.143 24.48C116.503 25.136 116.183 25.984 116.183 27.024C116.183 28.064 116.503 28.92 117.143 29.592C117.783 30.264 118.591 30.6 119.567 30.6ZM133.207 33.288C132.183 33.288 131.343 33.128 130.687 32.808C130.031 32.472 129.543 32.032 129.223 31.488C128.903 30.944 128.743 30.344 128.743 29.688C128.743 28.584 129.175 27.688 130.039 27C130.903 26.312 132.199 25.968 133.927 25.968H136.951V25.68C136.951 24.864 136.719 24.264 136.255 23.88C135.791 23.496 135.215 23.304 134.527 23.304C133.903 23.304 133.359 23.456 132.895 23.76C132.431 24.048 132.143 24.48 132.031 25.056H129.031C129.111 24.192 129.399 23.44 129.895 22.8C130.407 22.16 131.063 21.672 131.863 21.336C132.663 20.984 133.559 20.808 134.551 20.808C136.247 20.808 137.583 21.232 138.559 22.08C139.535 22.928 140.023 24.128 140.023 25.68V33H137.407L137.119 31.08C136.767 31.72 136.271 32.248 135.631 32.664C135.007 33.08 134.199 33.288 133.207 33.288ZM133.903 30.888C134.783 30.888 135.463 30.6 135.943 30.024C136.439 29.448 136.751 28.736 136.879 27.888H134.263C133.447 27.888 132.863 28.04 132.511 28.344C132.159 28.632 131.983 28.992 131.983 29.424C131.983 29.888 132.159 30.248 132.511 30.504C132.863 30.76 133.327 30.888 133.903 30.888ZM143.027 33V16.2H146.675L152.027 26.856L157.307 16.2H160.955V33H157.883V21.408L153.203 30.6H150.779L146.099 21.408V33H143.027ZM169.926 33.288C168.726 33.288 167.662 33.032 166.734 32.52C165.806 32.008 165.078 31.288 164.55 30.36C164.022 29.432 163.758 28.36 163.758 27.144C163.758 25.912 164.014 24.816 164.526 23.856C165.054 22.896 165.774 22.152 166.686 21.624C167.614 21.08 168.702 20.808 169.95 20.808C171.118 20.808 172.15 21.064 173.046 21.576C173.942 22.088 174.638 22.792 175.134 23.688C175.646 24.568 175.902 25.552 175.902 26.64C175.902 26.816 175.894 27 175.878 27.192C175.878 27.384 175.87 27.584 175.854 27.792H166.806C166.87 28.72 167.19 29.448 167.766 29.976C168.358 30.504 169.07 30.768 169.902 30.768C170.526 30.768 171.046 30.632 171.462 30.36C171.894 30.072 172.214 29.704 172.422 29.256H175.542C175.318 30.008 174.942 30.696 174.414 31.32C173.902 31.928 173.262 32.408 172.494 32.76C171.742 33.112 170.886 33.288 169.926 33.288ZM169.95 23.304C169.198 23.304 168.534 23.52 167.958 23.952C167.382 24.368 167.014 25.008 166.854 25.872H172.782C172.734 25.088 172.446 24.464 171.918 24C171.39 23.536 170.734 23.304 169.95 23.304ZM178.486 33V15.72H181.558V33H178.486ZM184.697 33V15.72H187.769V22.92C188.169 22.264 188.705 21.752 189.377 21.384C190.065 21 190.849 20.808 191.729 20.808C193.201 20.808 194.337 21.272 195.137 22.2C195.953 23.128 196.361 24.488 196.361 26.28V33H193.313V26.568C193.313 25.544 193.105 24.76 192.689 24.216C192.289 23.672 191.649 23.4 190.769 23.4C189.905 23.4 189.185 23.704 188.609 24.312C188.049 24.92 187.769 25.768 187.769 26.856V33H184.697ZM205.01 33.288C203.858 33.288 202.818 33.024 201.89 32.496C200.978 31.968 200.25 31.24 199.706 30.312C199.178 29.368 198.914 28.28 198.914 27.048C198.914 25.816 199.186 24.736 199.73 23.808C200.274 22.864 201.002 22.128 201.914 21.6C202.842 21.072 203.882 20.808 205.034 20.808C206.17 20.808 207.194 21.072 208.106 21.6C209.034 22.128 209.762 22.864 210.29 23.808C210.834 24.736 211.106 25.816 211.106 27.048C211.106 28.28 210.834 29.368 210.29 30.312C209.762 31.24 209.034 31.968 208.106 32.496C207.178 33.024 206.146 33.288 205.01 33.288ZM205.01 30.624C205.81 30.624 206.506 30.328 207.098 29.736C207.69 29.128 207.986 28.232 207.986 27.048C207.986 25.864 207.69 24.976 207.098 24.384C206.506 23.776 205.818 23.472 205.034 23.472C204.218 23.472 203.514 23.776 202.922 24.384C202.346 24.976 202.058 25.864 202.058 27.048C202.058 28.232 202.346 29.128 202.922 29.736C203.514 30.328 204.21 30.624 205.01 30.624ZM213.853 33V21.096H216.589L216.877 23.328C217.309 22.56 217.893 21.952 218.629 21.504C219.381 21.04 220.261 20.808 221.269 20.808V24.048H220.405C219.733 24.048 219.133 24.152 218.605 24.36C218.077 24.568 217.661 24.928 217.357 25.44C217.069 25.952 216.925 26.664 216.925 27.576V33H213.853Z" fill="#D95560"/>
</svg>
